<svg xmlns="http://www.w3.org/2000/svg" width="1038" height="1024"><path fill="none" stroke-width="24.381" stroke="#fff" d="M519.001 1008c277.041 0 501.619-222.065 501.619-495.998C1020.62 238.064 796.034 16 519.001 16S17.38 238.065 17.38 512.002C17.38 785.935 241.968 1008 519.001 1008z"/><path fill="#fff" d="m303.257 812.483-42.449-32.676 7.788-9.829 53.733 41.18-65.018 82.886-11.284-8.769 57.228-72.793zM220.77 762.27l31.163-9.827 8.866 11.687-108.542 32.147-9.944-12.749 61.259-93.779 9.402 12.223-18.268 26.831 26.064 33.47zm-32.777-21.781-27.677 40.386.272.269 47.557-14.61-20.15-26.036zM97.72 712.33l-16.655-43.041c-6.983-18.327.806-32.146 14.238-37.193 6.449-2.387 16.392-3.719 25.793 5.312 0-7.437.272-20.456 17.197-26.831 15.85-6.107 33.854.529 42.185 22.317l16.392 42.244-99.143 37.193zm36.807-29.225-9.137-23.91c-4.836-12.749-11.82-19.127-23.91-14.346-9.137 3.449-12.362 11.157-6.718 25.764l9.402 23.91 30.358-11.426zm45.674-17.269-11.013-28.162c-5.371-13.813-15.043-18.069-26.064-13.813-13.973 5.312-12.09 18.595-7.79 29.225l10.208 26.036 34.66-13.286zM162.74 533.789c2.418 39.055-29.823 53.135-52.664 54.466s-56.423-8.504-58.841-47.556c-2.418-39.051 29.823-53.132 52.664-54.464 22.84-1.593 56.423 8.501 58.841 47.551zm-98.872 6.11c1.341 22.847 20.422 35.333 45.409 33.738s42.185-16.208 40.837-39.051c-1.341-22.847-20.422-35.335-45.409-33.742-24.717 1.331-42.185 16.211-40.837 39.055zM164.072 448.25l-3.495 13.817-102.902-26.036 12.09-47.024c4.301-16.738 14.508-31.88 36.272-26.303 15.043 3.719 18.811 13.018 20.957 20.456 4.03-5.307 8.061-10.362 22.569-7.17l18.811 3.988c5.641 1.331 8.061 1.062 11.555-2.387l2.418.527-4.301 16.738c-6.718.269-22.569-3.189-26.328-4.247-8.332-2.13-18.811-2.925-23.104 13.547l-8.594 33.205 44.061 10.889zm-55.889-14.082 8.332-31.88c2.69-10.095 2.69-21.251-12.362-25.237-15.85-3.988-20.152 7.172-22.034 13.813l-8.867 34.273 34.931 9.027zM318.317 220.302c-32.775 22.049-61.258 1.86-74.156-16.733-12.898-18.598-21.491-52.341 11.284-74.386 32.775-22.048 61.258-1.859 74.156 16.738 12.626 18.595 21.23 52.336-11.284 74.382zm-55.886-81.026c-19.073 12.749-20.15 35.333-6.177 55.789 13.975 20.456 35.738 27.629 54.81 14.61 19.076-12.749 20.153-35.335 6.177-55.791-13.975-20.187-35.738-27.364-54.81-14.607zM461.244 158.941l-16.118-59.776c-.808-2.923-4.031-15.941-6.451-25.238h-.272l-5.641 92.721-13.703 3.719-52.12-77.309h-.272c2.418 9.299 6.177 22.048 6.983 24.972l16.121 59.775-13.43 3.454L348.936 80.04l19.878-5.311 52.392 77.841h.272l5.914-93.517 19.617-5.311 27.405 101.215-13.169 3.988zM575.152 53.998l13.975.797-6.451 104.674-16.121-1.062-48.633-87.669h-.272l-5.105 84.48-13.975-.798 6.447-104.674 16.93 1.063 47.827 87.67h.269l5.109-84.48zM625.141 171.956l-13.703-3.988L640.73 67.014l13.703 3.988-29.292 100.954zM683.725 161.056l-24.453 21.788-13.166-6.911 85.167-73.856 14.239 7.706-16.121 110.515-13.703-7.17 5.37-31.88-37.348-20.187zm38.962 6.379 8.061-48.085-.272-.268-37.08 32.947 29.292 15.407zM960.979 363.783l6.177 14.61-112.846 4.782-5.914-13.813 83.292-75.449 6.175 14.61-72.009 61.901v.269l95.113-6.911zM873.936 454.355l-2.687-13.813 104.248-18.862 2.69 13.813-104.25 18.862zM983.295 557.167l-.534 13.817-106.125-3.988.536-15.942 87.587-50.211v-.265l-85.712-3.192.534-13.813 106.125 3.988-.534 16.738-87.587 49.145v.269l85.708 3.449zM916.929 685.755c18.812 2.387 27.405-10.891 30.628-20.456 6.451-17.8-1.61-36.928-27.939-46.224-23.646-8.235-44.604-6.375-53.469 18.069-3.223 8.769-4.3 25.237 17.199 37.988l-4.565 13.018c-35.738-18.867-26.6-49.681-23.91-57.123 8.061-22.314 30.628-39.318 69.047-25.764 30.9 10.889 45.945 35.6 35.467 64.556-9.137 25.506-29.823 32.944-47.283 29.225l4.834-13.283zM783.93 755.896l46.481-62.431 85.44 62.165-45.945 61.633-10.207-7.437 37.348-50.208-26.064-19.127-34.389 46.221-10.207-7.437 34.389-46.224-28.482-20.72-37.885 51.005-10.48-7.442zM839.819 848.342l-67.708 52.606-7.788-9.827 28.21-21.788-57.502-72.793 11.287-8.773 57.497 72.793 28.213-21.788 7.788 9.568zM716.749 341.711c-30.361-34.267-69.59-60.839-114.187-75.449v114.5h141.593l61.258.269c18.812 39.849 29.018 84.219 29.018 130.975 0 162.589-125.742 295.955-286.145 310.565v-52.867c131.117-14.349 232.946-124.335 232.946-257.699 0-26.831-4.029-52.867-11.818-77.31H547.753V201.439c85.712 7.706 161.743 49.414 213.869 111.317l-44.869 28.958zM268.591 434.697c-7.788 24.443-11.821 50.211-11.821 77.31 0 132.835 100.755 242.018 230.795 257.431v52.867c-159.595-15.407-283.991-148.51-283.991-310.297 0-161.791 124.667-294.892 284.262-310.297v232.988H268.593zm164.433-53.93.272-113.704c-59.375 20.192-109.089 61.103-140.522 113.974l140.251-.269z"/><path fill="#fff" d="M528.946 794.672c-.808 71.204 73.079 46.493 73.079 46.493-13.434 49.147-67.175 19.927-67.175 19.927 13.975 36.666-15.584 67.742-15.584 67.742h-.805s-29.552-31.345-15.588-67.742c0 0-53.731 29.229-67.172-19.927 0 0 73.886 24.707 73.079-46.493v-.265c.808-71.204-73.079-46.493-73.079-46.493 13.434-49.145 67.172-19.927 67.172-19.927-13.971-36.666 15.588-67.742 15.588-67.742h.805s29.552 31.345 15.584 67.742c0 0 53.733-29.225 67.175 19.927 0 0-73.886-24.707-73.079 46.493v.265z"/></svg>
